<svg xmlns="http://www.w3.org/2000/svg" width="68" height="77" viewBox="0 0 68 77">
  <metadata><?xpacket begin="﻿" id="W5M0MpCehiHzreSzNTczkc9d"?>
<x:xmpmeta xmlns:x="adobe:ns:meta/" x:xmptk="Adobe XMP Core 5.6-c140 79.160451, 2017/05/06-01:08:21        ">
   <rdf:RDF xmlns:rdf="http://www.w3.org/1999/02/22-rdf-syntax-ns#">
      <rdf:Description rdf:about=""/>
   </rdf:RDF>
</x:xmpmeta>
                                                                                                    
                                                                                                    
                                                                                                    
                                                                                                    
                                                                                                    
                                                                                                    
                                                                                                    
                                                                                                    
                                                                                                    
                                                                                                    
                                                                                                    
                                                                                                    
                                                                                                    
                                                                                                    
                                                                                                    
                                                                                                    
                                                                                                    
                                                                                                    
                                                                                                    
                                                                                                    
                           
<?xpacket end="w"?></metadata>
<defs>
    <style>
      .cls-1 {
        fill: #c3c9da;
        fill-rule: evenodd;
      }
    </style>
  </defs>
  <path id="icn_history" class="cls-1" d="M2,45.062V43.024a1.21,1.21,0,0,0,.1-0.268,9.752,9.752,0,0,1,3.1-5.771q14-13.672,27.961-27.384a9.625,9.625,0,0,1,13.486.022q8.309,8.233,16.579,16.5a9.017,9.017,0,0,1,2.349,3.878c0.149,0.5.279,1.015,0.417,1.523v2.328a1.655,1.655,0,0,0-.127.329,9.192,9.192,0,0,1-2.763,5.241Q48.934,53.319,34.76,67.215a9.15,9.15,0,0,1-3.9,2.319c-0.508.147-1.02,0.275-1.531,0.411H26.986a1.851,1.851,0,0,0-.339-0.12,9.11,9.11,0,0,1-5.181-2.613q-8.372-8.322-16.73-16.658A8.933,8.933,0,0,1,2.388,46.6C2.245,46.088,2.128,45.573,2,45.062ZM21.927,58.9c1.275,1.267,2.512,2.5,3.754,3.729a3.267,3.267,0,0,0,4.859.007c1.619-1.576,3.225-3.165,4.839-4.746q11.633-11.4,23.266-22.8a3.045,3.045,0,0,0,.016-4.729c-0.772-.774-1.565-1.528-2.317-2.32-0.462-.487-0.866-1.03-1.273-1.52-3.275,2.576-6.694,1.816-8.579.059a6.023,6.023,0,0,1-1.928-3.66,6.269,6.269,0,0,1,1.544-5.064c-1.33-1.323-2.61-2.616-3.913-3.887a3.14,3.14,0,0,0-4.574,0q-14.2,13.889-28.371,27.8a3.008,3.008,0,0,0,.015,4.519c1.146,1.155,2.3,2.3,3.462,3.444,0.131,0.129.285,0.235,0.419,0.343A6.238,6.238,0,0,1,21.927,58.9ZM18.082,39.435L35.436,22.823,49.943,37.288,32.591,53.9Zm27.46-2.245L35.435,27.136,22.47,39.534,32.575,49.6Z"/>
</svg>
